<?xml version="1.0" encoding="UTF-8"?>
<svg xmlns="http://www.w3.org/2000/svg" xmlns:xlink="http://www.w3.org/1999/xlink" viewBox="0 0 278.07 207.77">
  <defs>
    <style>
      .cls-1 {
        fill: #74b3a8;
      }

      .cls-2 {
        fill: url(#linear-gradient-2);
      }

      .cls-3 {
        fill: #eaae6e;
      }

      .cls-4 {
        fill: #fff;
      }

      .cls-5 {
        fill: url(#linear-gradient-17);
      }

      .cls-6 {
        fill: url(#linear-gradient-43);
      }

      .cls-7, .cls-8 {
        fill: #e0cab1;
      }

      .cls-9 {
        fill: url(#linear-gradient-15);
      }

      .cls-10 {
        fill: url(#linear-gradient-18);
      }

      .cls-11 {
        fill: url(#linear-gradient-40);
      }

      .cls-12 {
        fill: url(#linear-gradient-14);
      }

      .cls-13 {
        fill: url(#linear-gradient-36);
      }

      .cls-14 {
        fill: url(#linear-gradient-20);
      }

      .cls-15 {
        fill: url(#linear-gradient-6);
      }

      .cls-16 {
        fill: url(#radial-gradient-5);
      }

      .cls-17 {
        fill: url(#radial-gradient-4);
      }

      .cls-18 {
        isolation: isolate;
      }

      .cls-19 {
        fill: #f58484;
      }

      .cls-20 {
        fill: #fffcdd;
      }

      .cls-21 {
        fill: #805841;
        opacity: .18;
      }

      .cls-21, .cls-22, .cls-23, .cls-24, .cls-25, .cls-26, .cls-8 {
        mix-blend-mode: multiply;
      }

      .cls-27 {
        fill: url(#linear-gradient-35);
      }

      .cls-28 {
        fill: url(#linear-gradient-32);
      }

      .cls-22 {
        fill: url(#linear-gradient-28);
      }

      .cls-22, .cls-25 {
        opacity: .12;
      }

      .cls-29 {
        fill: url(#linear-gradient-11);
      }

      .cls-30 {
        fill: url(#linear-gradient-39);
      }

      .cls-31 {
        fill: url(#radial-gradient-6);
      }

      .cls-32 {
        fill: url(#linear-gradient-10);
      }

      .cls-33 {
        fill: #d6b89a;
      }

      .cls-34 {
        fill: url(#radial-gradient);
      }

      .cls-35 {
        fill: url(#linear-gradient-37);
      }

      .cls-36 {
        fill: url(#linear-gradient-16);
      }

      .cls-23 {
        fill: #997665;
        opacity: .56;
      }

      .cls-37 {
        fill: url(#linear-gradient-31);
      }

      .cls-38 {
        fill: url(#linear-gradient-41);
      }

      .cls-39 {
        fill: url(#linear-gradient-21);
      }

      .cls-40 {
        fill: url(#linear-gradient-25);
      }

      .cls-41 {
        fill: url(#linear-gradient-5);
      }

      .cls-24 {
        fill: #f5a2a2;
      }

      .cls-24, .cls-8 {
        opacity: .43;
      }

      .cls-42 {
        fill: url(#radial-gradient-2);
      }

      .cls-43 {
        fill: url(#linear-gradient-34);
      }

      .cls-44 {
        fill: #ffd8d8;
      }

      .cls-45 {
        fill: url(#radial-gradient-3);
      }

      .cls-46 {
        fill: url(#linear-gradient-7);
      }

      .cls-25 {
        fill: #dcf7f3;
      }

      .cls-26 {
        fill: #a54225;
        opacity: .15;
      }

      .cls-47 {
        fill: url(#linear-gradient-24);
      }

      .cls-48 {
        fill: url(#linear-gradient-9);
      }

      .cls-49 {
        fill: url(#linear-gradient-22);
      }

      .cls-50 {
        fill: none;
        stroke: #42210b;
        stroke-linecap: round;
        stroke-miterlimit: 10;
      }

      .cls-51 {
        fill: url(#linear-gradient-42);
      }

      .cls-52 {
        fill: url(#linear-gradient-3);
      }

      .cls-53 {
        fill: url(#linear-gradient);
      }

      .cls-54 {
        fill: url(#linear-gradient-27);
      }

      .cls-55 {
        fill: url(#linear-gradient-33);
      }

      .cls-56 {
        fill: url(#linear-gradient-38);
      }

      .cls-57 {
        fill: #eb7e3e;
        opacity: .38;
      }

      .cls-58 {
        fill: url(#linear-gradient-29);
      }

      .cls-59 {
        fill: url(#linear-gradient-30);
      }

      .cls-60 {
        fill: url(#linear-gradient-23);
      }

      .cls-61 {
        fill: url(#linear-gradient-19);
      }

      .cls-62 {
        fill: url(#linear-gradient-4);
      }

      .cls-63 {
        fill: url(#linear-gradient-8);
      }

      .cls-64 {
        fill: url(#linear-gradient-12);
      }

      .cls-65 {
        fill: url(#linear-gradient-13);
      }

      .cls-66 {
        fill: url(#linear-gradient-26);
      }
    </style>
    <linearGradient id="linear-gradient" x1="10.69" y1="149.23" x2="267.62" y2="149.23" gradientUnits="userSpaceOnUse">
      <stop offset="0" stop-color="#997665"/>
      <stop offset=".16" stop-color="#a77d68"/>
      <stop offset=".3" stop-color="#b0816a"/>
      <stop offset=".47" stop-color="#ad7e67"/>
      <stop offset=".58" stop-color="#a3765f"/>
      <stop offset=".68" stop-color="#946851"/>
      <stop offset=".68" stop-color="#946851"/>
      <stop offset=".8" stop-color="#966a53"/>
      <stop offset=".89" stop-color="#a0735c"/>
      <stop offset=".96" stop-color="#af826a"/>
      <stop offset="1" stop-color="#ba8d74"/>
    </linearGradient>
    <radialGradient id="radial-gradient" cx="140.8" cy="15.62" fx="140.8" fy="15.62" r="181.5" gradientTransform="translate(0 5.83) scale(1 .63)" gradientUnits="userSpaceOnUse">
      <stop offset="0" stop-color="#fff"/>
      <stop offset=".5" stop-color="#fffdfd"/>
      <stop offset=".68" stop-color="#fff8f6"/>
      <stop offset=".8" stop-color="#fff0ea"/>
      <stop offset=".9" stop-color="#ffe6db"/>
      <stop offset="1" stop-color="#fff"/>
    </radialGradient>
    <linearGradient id="linear-gradient-2" x1="110.18" y1="53.2" x2="121.41" y2="44.01" gradientUnits="userSpaceOnUse">
      <stop offset="0" stop-color="#f0c481"/>
      <stop offset=".2" stop-color="#f2d39a"/>
      <stop offset=".55" stop-color="#f6eabf"/>
      <stop offset=".83" stop-color="#f8f8d6"/>
      <stop offset="1" stop-color="#f9fedf"/>
    </linearGradient>
    <linearGradient id="linear-gradient-3" x1="139.13" y1="47.39" x2="129.19" y2="30.15" gradientUnits="userSpaceOnUse">
      <stop offset="0" stop-color="#f0c481"/>
      <stop offset=".09" stop-color="#f2d298"/>
      <stop offset=".21" stop-color="#f4e2b1"/>
      <stop offset=".34" stop-color="#f6eec6"/>
      <stop offset=".5" stop-color="#f7f7d4"/>
      <stop offset=".68" stop-color="#f8fcdc"/>
      <stop offset="1" stop-color="#f9fedf"/>
    </linearGradient>
    <linearGradient id="linear-gradient-4" x1="122.59" y1="25.39" x2="134.16" y2="54.78" xlink:href="#linear-gradient-2"/>
    <linearGradient id="linear-gradient-5" x1="114.19" y1="40.5" x2="122.17" y2="40.5" xlink:href="#linear-gradient-2"/>
    <radialGradient id="radial-gradient-2" cx="121.37" cy="42.1" fx="121.37" fy="42.1" r="28.25" gradientUnits="userSpaceOnUse">
      <stop offset="0" stop-color="#f9fedf"/>
      <stop offset=".18" stop-color="#f8fad9"/>
      <stop offset=".4" stop-color="#f7f1ca"/>
      <stop offset=".65" stop-color="#f4e1b1"/>
      <stop offset=".91" stop-color="#f1cc8e"/>
      <stop offset="1" stop-color="#f0c481"/>
    </radialGradient>
    <linearGradient id="linear-gradient-6" x1="169.09" y1="25.77" x2="162" y2="42.03" gradientUnits="userSpaceOnUse">
      <stop offset="0" stop-color="#bce8e1"/>
      <stop offset=".08" stop-color="#c7ece6"/>
      <stop offset=".28" stop-color="#e0f4f1"/>
      <stop offset=".5" stop-color="#f1faf8"/>
      <stop offset=".72" stop-color="#fbfdfd"/>
      <stop offset="1" stop-color="#fff"/>
    </linearGradient>
    <linearGradient id="linear-gradient-7" x1="150.75" y1="60.81" x2="180.92" y2="33.79" gradientUnits="userSpaceOnUse">
      <stop offset="0" stop-color="#bce8e1"/>
      <stop offset="1" stop-color="#f3fbfa"/>
    </linearGradient>
    <linearGradient id="linear-gradient-8" x1="178.67" y1="28.1" x2="149.62" y2="66.04" xlink:href="#linear-gradient-7"/>
    <linearGradient id="linear-gradient-9" x1="159.81" y1="74.76" x2="181.83" y2="47.93" gradientUnits="userSpaceOnUse">
      <stop offset="0" stop-color="#a4dbd3"/>
      <stop offset="1" stop-color="#f3fbfa"/>
    </linearGradient>
    <linearGradient id="linear-gradient-10" x1="170.32" y1="56.41" x2="194.43" y2="56.41" xlink:href="#linear-gradient-7"/>
    <linearGradient id="linear-gradient-11" x1="105.7" y1="35.95" x2="131.76" y2="35.95" gradientUnits="userSpaceOnUse">
      <stop offset="0" stop-color="#ffd8d8"/>
      <stop offset=".06" stop-color="#ffe3e3"/>
      <stop offset=".19" stop-color="#fff7f7"/>
      <stop offset=".28" stop-color="#fff"/>
      <stop offset=".73" stop-color="#ffd8d8"/>
      <stop offset="1" stop-color="#fff"/>
    </linearGradient>
    <linearGradient id="linear-gradient-12" x1="108.08" y1="22.27" x2="128.99" y2="22.27" gradientUnits="userSpaceOnUse">
      <stop offset="0" stop-color="#ffd8d8"/>
      <stop offset=".67" stop-color="#f5a2a2"/>
      <stop offset=".76" stop-color="#f6abab"/>
      <stop offset=".91" stop-color="#fbc4c4"/>
      <stop offset="1" stop-color="#ffd8d8"/>
    </linearGradient>
    <linearGradient id="linear-gradient-13" x1="102.74" y1="42.39" x2="130.03" y2="42.39" xlink:href="#linear-gradient-12"/>
    <linearGradient id="linear-gradient-14" x1="93.21" y1="60.4" x2="139.64" y2="60.4" xlink:href="#linear-gradient-12"/>
    <linearGradient id="linear-gradient-15" x1="152.3" y1="36.36" x2="197.8" y2="36.36" gradientUnits="userSpaceOnUse">
      <stop offset=".03" stop-color="#f9bcc9"/>
      <stop offset=".05" stop-color="#f9c3ce"/>
      <stop offset=".13" stop-color="#fce3e9"/>
      <stop offset=".19" stop-color="#fef7f9"/>
      <stop offset=".24" stop-color="#fff"/>
      <stop offset=".65" stop-color="#f9c0cb"/>
      <stop offset="1" stop-color="#fff"/>
    </linearGradient>
    <linearGradient id="linear-gradient-16" x1="173.57" y1="19.92" x2="195.84" y2="19.92" xlink:href="#linear-gradient-12"/>
    <linearGradient id="linear-gradient-17" x1="163.8" y1="36.78" x2="190.95" y2="36.78" xlink:href="#linear-gradient-12"/>
    <linearGradient id="linear-gradient-18" x1="152.27" y1="53.83" x2="190.74" y2="53.83" xlink:href="#linear-gradient-12"/>
    <linearGradient id="linear-gradient-19" x1="-2449.82" y1="57.51" x2="-2468.56" y2="45.76" gradientTransform="translate(-2388.36) rotate(-180) scale(1 -1)" gradientUnits="userSpaceOnUse">
      <stop offset="0" stop-color="#7c9ad5"/>
      <stop offset=".36" stop-color="#9cb4e4"/>
      <stop offset="1" stop-color="#d3e0ff"/>
    </linearGradient>
    <linearGradient id="linear-gradient-20" x1="-2451.46" y1="71.56" x2="-2442.18" y2="40.26" xlink:href="#linear-gradient-19"/>
    <linearGradient id="linear-gradient-21" x1="-2458.58" y1="73.82" x2="-2444.73" y2="42.38" xlink:href="#linear-gradient-19"/>
    <linearGradient id="linear-gradient-22" x1="-2450.94" y1="76" x2="-2463.27" y2="36.38" xlink:href="#linear-gradient-19"/>
    <radialGradient id="radial-gradient-3" cx="-2252.78" cy="173.13" fx="-2252.78" fy="173.13" r="34.47" gradientTransform="translate(-2154.67 157.25) rotate(173.44) scale(1 -1)" gradientUnits="userSpaceOnUse">
      <stop offset="0" stop-color="#fff5f5"/>
      <stop offset=".17" stop-color="#fffbfb"/>
      <stop offset=".46" stop-color="#fff"/>
      <stop offset="1" stop-color="#ffd8d8"/>
    </radialGradient>
    <radialGradient id="radial-gradient-4" cx="-2218.34" cy="174.21" fx="-2218.34" fy="174.21" r="48.57" xlink:href="#radial-gradient-3"/>
    <radialGradient id="radial-gradient-5" cx="-2166.82" cy="63.21" fx="-2166.82" fy="63.21" r="32.43" gradientTransform="translate(-2059.74) rotate(-180) scale(1 -1)" xlink:href="#radial-gradient-3"/>
    <radialGradient id="radial-gradient-6" cx="-2134.61" cy="63.91" fx="-2134.61" fy="63.91" r="43.03" gradientTransform="translate(-2059.74) rotate(-180) scale(1 -1)" xlink:href="#radial-gradient-3"/>
    <linearGradient id="linear-gradient-23" x1="-2531.84" y1="-29.12" x2="-2518.4" y2="4.57" gradientTransform="translate(-2456.52 -83.85) rotate(-176.05) scale(1 -1)" gradientUnits="userSpaceOnUse">
      <stop offset="0" stop-color="#edffff"/>
      <stop offset=".37" stop-color="#a4dbd3"/>
      <stop offset="1" stop-color="#f3fbfa"/>
    </linearGradient>
    <linearGradient id="linear-gradient-24" x1="-2538.03" y1="-26.65" x2="-2524.59" y2="7.04" gradientTransform="translate(-2456.52 -83.85) rotate(-176.05) scale(1 -1)" gradientUnits="userSpaceOnUse">
      <stop offset="0" stop-color="#edffff"/>
      <stop offset=".36" stop-color="#bae8e2"/>
      <stop offset="1" stop-color="#f3fbfa"/>
    </linearGradient>
    <linearGradient id="linear-gradient-25" x1="-2534.59" y1="-28.02" x2="-2521.15" y2="5.67" xlink:href="#linear-gradient-23"/>
    <linearGradient id="linear-gradient-26" x1="-2533.44" y1="-28.48" x2="-2520" y2="5.21" xlink:href="#linear-gradient-24"/>
    <linearGradient id="linear-gradient-27" x1="-2530.12" y1="-29.81" x2="-2516.68" y2="3.88" xlink:href="#linear-gradient-23"/>
    <linearGradient id="linear-gradient-28" x1="119.4" y1="91.52" x2="157.32" y2="91.52" gradientUnits="userSpaceOnUse">
      <stop offset="0" stop-color="#ffc5a0"/>
      <stop offset="1" stop-color="#ffe9e2"/>
    </linearGradient>
    <linearGradient id="linear-gradient-29" x1="140.21" y1="78.47" x2="155.6" y2="69" xlink:href="#linear-gradient-28"/>
    <linearGradient id="linear-gradient-30" x1="134.93" y1="73.52" x2="122.56" y2="68.39" xlink:href="#linear-gradient-28"/>
    <linearGradient id="linear-gradient-31" x1="144.71" y1="80.45" x2="130.64" y2="70.52" xlink:href="#linear-gradient-28"/>
    <linearGradient id="linear-gradient-32" x1="149.18" y1="82.52" x2="144.02" y2="55.07" xlink:href="#linear-gradient-28"/>
    <linearGradient id="linear-gradient-33" x1="131.51" y1="79.03" x2="155.7" y2="72.1" xlink:href="#linear-gradient-28"/>
    <linearGradient id="linear-gradient-34" x1="134.09" y1="-43.71" x2="134.09" y2="-80.48" gradientTransform="translate(94.28 93.03) rotate(6.48)" gradientUnits="userSpaceOnUse">
      <stop offset="0" stop-color="#fbce92"/>
      <stop offset=".2" stop-color="#fac98d"/>
      <stop offset=".43" stop-color="#f7bd80"/>
      <stop offset=".67" stop-color="#f3a86a"/>
      <stop offset=".91" stop-color="#ed8a4b"/>
      <stop offset="1" stop-color="#eb7e3e"/>
    </linearGradient>
    <linearGradient id="linear-gradient-35" x1="139.92" y1="-27.59" x2="117.61" y2="-85.93" gradientTransform="translate(94.28 93.03) rotate(6.48)" gradientUnits="userSpaceOnUse">
      <stop offset=".46" stop-color="#fbce91"/>
      <stop offset=".59" stop-color="#faca8d"/>
      <stop offset=".7" stop-color="#f8c082"/>
      <stop offset=".81" stop-color="#f4af70"/>
      <stop offset=".92" stop-color="#ef9657"/>
      <stop offset="1" stop-color="#eb7e3e"/>
    </linearGradient>
    <linearGradient id="linear-gradient-36" x1="198.99" y1="89.16" x2="177.12" y2="61.49" gradientUnits="userSpaceOnUse">
      <stop offset="0" stop-color="#f5a2a2"/>
      <stop offset="1" stop-color="#ffd8d8"/>
    </linearGradient>
    <linearGradient id="linear-gradient-37" x1="222.52" y1="75.55" x2="200.12" y2="74.23" xlink:href="#linear-gradient-36"/>
    <linearGradient id="linear-gradient-38" x1="200.58" y1="75.59" x2="212.48" y2="75.59" xlink:href="#linear-gradient-36"/>
    <linearGradient id="linear-gradient-39" x1="209.13" y1="94.27" x2="184.09" y2="69.36" xlink:href="#linear-gradient-36"/>
    <linearGradient id="linear-gradient-40" x1="160.55" y1="74.75" x2="168.73" y2="76.2" gradientUnits="userSpaceOnUse">
      <stop offset="0" stop-color="#fff"/>
      <stop offset=".55" stop-color="#fff8f4"/>
      <stop offset="1" stop-color="#fff2e8"/>
    </linearGradient>
    <linearGradient id="linear-gradient-41" x1="79.07" y1="-34.88" x2="58.89" y2="-55.06" gradientTransform="translate(-32.68 91.16) rotate(5.47) scale(.97 1.03) skewX(5.08)" xlink:href="#linear-gradient-36"/>
    <linearGradient id="linear-gradient-42" x1="41.3" y1="64.99" x2="21.12" y2="44.81" xlink:href="#linear-gradient-36"/>
    <linearGradient id="linear-gradient-43" x1="51.37" y1="79.21" x2="30.54" y2="58.38" xlink:href="#linear-gradient-36"/>
  </defs>
  <g class="cls-18">
    <g id="Layer_2" data-name="Layer 2">
      <g id="OBJECTS">
        <g>
          <path class="cls-44" d="m268.14,166.76c-1.26,22.63-58.46,41.02-129.29,41.01-70.83,0-128.03-18.39-129.29-41.01-1.42-22.5,56.56-41.44,129.29-41.55,72.73.11,130.71,19.05,129.29,41.55Z"/>
          <g>
            <path class="cls-53" d="m138.91,97.95c-28.47.27-56.65,3.09-81.32,9.62-24.18,6.43-44.68,16.42-46.14,28.81-1.31,8.83-.89,18.07,1.09,26.89,2.47,12.39,22.93,22.14,46.63,28.23,24.2,6.19,51.78,8.72,79.74,9,27.96,0,55.63-2.26,79.93-8.4,23.8-6.02,44.36-15.91,46.89-28.56,2.02-8.99,2.46-18.42,1.12-27.43-1.48-12.65-22.1-22.78-46.4-29.15-24.8-6.47-53.09-9.03-81.55-9.02Z"/>
            <g>
              <g>
                <g>
                  <path class="cls-50" d="m66.37,179.3c-.27.11-.47.35-.51.63"/>
                  <path class="cls-50" d="m50.23,173.7c-.3.41-.74.73-1.23.89"/>
                  <path class="cls-50" d="m48.31,183.51c.13.3.25.59.37.89"/>
                  <path class="cls-50" d="m25.05,171.84c-.2.27-.4.54-.6.8"/>
                  <path class="cls-50" d="m40.44,176.12c.25.36.5.71.75,1.07"/>
                  <path class="cls-50" d="m60.55,173.87c.16.27.31.53.47.8"/>
                  <path class="cls-50" d="m59.96,186.26c-.2.27-.41.53-.61.8"/>
                  <path class="cls-50" d="m35.93,169.35c-.17.27-.34.53-.51.8"/>
                  <path class="cls-50" d="m30.43,176.57c-.28.34-.37.82-.25,1.24"/>
                  <path class="cls-50" d="m51.98,167.52c.12.12.23.23.35.35-.13-.11-.25-.21-.38-.32"/>
                  <path class="cls-50" d="m67,170.4c-.2.24-.41.48-.61.71"/>
                  <path class="cls-50" d="m73.14,184.04c.15.24.3.48.46.71"/>
                  <path class="cls-50" d="m63.34,164.5c-.11.3-.22.6-.33.9"/>
                  <path class="cls-50" d="m55.66,179.03c.15.24.31.47.46.71"/>
                  <path class="cls-50" d="m41.08,164.64c-.53.38-1.06.77-1.59,1.15"/>
                  <path class="cls-50" d="m30.08,166.86c-.05.37-.27.71-.58.9"/>
                  <path class="cls-50" d="m20,168.83c.29.39.57.77.86,1.16"/>
                  <path class="cls-50" d="m42.37,181.9c.18.21.37.42.55.62"/>
                  <path class="cls-50" d="m44.67,169.88c-.05.27-.1.54-.16.8"/>
                  <path class="cls-50" d="m60.4,180.3c.1.33.19.65.29.98"/>
                  <path class="cls-50" d="m54.61,186.8c-.2.36-.41.71-.61,1.07"/>
                  <path class="cls-50" d="m56.11,172.19c-.17.27-.35.54-.52.8"/>
                  <path class="cls-50" d="m52.31,162.27c-.17.27-.34.54-.51.81"/>
                  <path class="cls-50" d="m34.7,175.3c.19.24.37.48.56.71"/>
                  <path class="cls-50" d="m24.83,163.4c-.14.24-.28.48-.42.71"/>
                  <path class="cls-50" d="m73.15,189.85c-.18.24-.35.48-.53.71"/>
                  <path class="cls-50" d="m65.97,186.99c-.12.21-.23.42-.35.62"/>
                  <path class="cls-50" d="m75.32,174.32c-.02.28.13.57.37.71"/>
                  <path class="cls-50" d="m72.31,164.83c-.19.3-.39.61-.58.91"/>
                  <path class="cls-50" d="m70.41,175.65c-.03.09-.06.18-.08.27"/>
                  <path class="cls-50" d="m48.69,179.25c.23.18.46.36.69.54-.21-.2-.43-.41-.64-.61"/>
                  <path class="cls-50" d="m57.98,166.19c.19.36.38.72.57,1.07"/>
                  <path class="cls-50" d="m45.02,162.98c.06.73-.05,1.48-.33,2.15"/>
                  <path class="cls-50" d="m32.63,162.33c.11.49.23.98.34,1.47"/>
                  <path class="cls-50" d="m15.1,167.58c.29.44.59.89.88,1.33"/>
                </g>
                <g>
                  <path class="cls-50" d="m97.24,183.98c.48-.4.97-.79,1.45-1.19"/>
                  <path class="cls-50" d="m112.92,193.76c.4.32.64.82.65,1.33"/>
                  <path class="cls-50" d="m128.67,179.29c-.27.11-.47.35-.52.63"/>
                  <path class="cls-50" d="m128.88,193.56c.36.56.71,1.13,1.07,1.69"/>
                  <path class="cls-50" d="m112.64,173.68c-.31.41-.75.73-1.25.89"/>
                  <path class="cls-50" d="m98.64,192.05c-.09.4.03.84.3,1.16"/>
                  <path class="cls-50" d="m110.56,183.5c.12.3.24.59.36.89"/>
                  <path class="cls-50" d="m87.55,171.81c-.2.27-.41.54-.61.81"/>
                  <path class="cls-50" d="m82.69,183.33c.27.27.54.53.82.8"/>
                  <path class="cls-50" d="m88.6,195.7c-.03.24-.06.47-.09.71"/>
                  <path class="cls-50" d="m102.82,176.09c.24.36.48.71.72,1.07"/>
                  <path class="cls-50" d="m122.95,173.85c.15.27.3.53.45.8"/>
                  <path class="cls-50" d="m122.17,186.26c-.21.27-.41.53-.62.8"/>
                  <path class="cls-50" d="m98.46,169.31c-.18.27-.35.54-.53.8"/>
                  <path class="cls-50" d="m92.82,176.55c-.28.34-.39.82-.27,1.25"/>
                  <path class="cls-50" d="m105.77,188.13c.12.27.24.53.36.8"/>
                  <path class="cls-50" d="m91.42,188.5c-.18.18-.35.36-.53.53"/>
                  <path class="cls-50" d="m82.44,193.03c-.24.3-.47.59-.71.89"/>
                  <path class="cls-50" d="m114.51,167.49c.11.12.23.23.34.35-.12-.11-.25-.21-.37-.32"/>
                  <path class="cls-50" d="m129.45,170.38c-.21.24-.42.48-.62.71"/>
                  <path class="cls-50" d="m135.37,184.03c.15.24.3.48.45.71"/>
                  <path class="cls-50" d="m117.98,179.02c.15.24.3.48.45.71"/>
                  <path class="cls-50" d="m92.68,166.81c-.05.37-.28.71-.6.9"/>
                  <path class="cls-50" d="m82.58,168.78c.28.39.55.77.83,1.16"/>
                  <path class="cls-50" d="m85.98,181.81c.09.12.18.24.27.36"/>
                  <path class="cls-50" d="m78.91,187.78c-.12.24-.23.48-.35.71"/>
                  <path class="cls-50" d="m94.19,195.63c.06.12.12.24.19.35"/>
                  <path class="cls-50" d="m87.05,190.09c-.09.24-.17.48-.26.71"/>
                  <path class="cls-50" d="m104.66,181.89c.18.21.36.42.54.62"/>
                  <path class="cls-50" d="m107.17,169.85c-.06.27-.11.54-.17.8"/>
                  <path class="cls-50" d="m122.69,180.28c.09.33.18.65.27.98"/>
                  <path class="cls-50" d="m116.82,186.79c-.21.36-.41.71-.62,1.07"/>
                  <path class="cls-50" d="m118.54,172.16c-.18.27-.36.54-.53.8"/>
                  <path class="cls-50" d="m97.11,175.28c.18.24.36.48.54.72"/>
                  <path class="cls-50" d="m87.53,163.34c-.15.24-.29.48-.44.72"/>
                  <path class="cls-50" d="m81.35,175.65c-.09.21-.17.42-.26.62"/>
                  <path class="cls-50" d="m101.12,187.78c.09.12.18.24.27.36"/>
                  <path class="cls-50" d="m122.01,199.1c.19.27.49.47.82.52"/>
                  <path class="cls-50" d="m135.32,189.85c-.18.24-.36.48-.53.71"/>
                  <path class="cls-50" d="m128.17,186.98c-.12.21-.24.42-.35.62"/>
                  <path class="cls-50" d="m122.37,192.76c.22.24.35.57.35.89"/>
                  <path class="cls-50" d="m137.69,174.31c-.03.28.12.57.36.72"/>
                  <path class="cls-50" d="m132.77,175.64c-.03.09-.06.18-.09.27"/>
                  <path class="cls-50" d="m111.01,179.24c.23.18.45.36.68.55-.21-.2-.42-.41-.63-.61"/>
                  <path class="cls-50" d="m120.53,166.15c.18.36.36.72.55,1.08"/>
                  <path class="cls-50" d="m91.71,182.55c.09.18.18.36.27.54"/>
                  <path class="cls-50" d="m79.71,179.87c-.22.36-.44.72-.66,1.07"/>
                  <path class="cls-50" d="m77.74,167.53c.28.45.56.89.84,1.34"/>
                  <path class="cls-50" d="m106.42,194.35c.22.22.45.45.67.67"/>
                </g>
                <g>
                  <path class="cls-50" d="m35.15,150.58c-.07.4.06.85.35,1.16"/>
                  <path class="cls-50" d="m25.11,154.27c-.02.24-.04.48-.06.71"/>
                  <path class="cls-50" d="m43.85,157.08c-.29.3-.58.6-.87.89"/>
                  <path class="cls-50" d="m18.71,151.61c-.23.3-.45.59-.68.89"/>
                  <path class="cls-50" d="m14.86,146.37c-.11.24-.21.48-.32.71"/>
                  <path class="cls-50" d="m30.78,154.18c.07.12.13.24.2.35"/>
                  <path class="cls-50" d="m23.27,148.66c-.08.24-.16.48-.23.71"/>
                  <path class="cls-50" d="m35.41,158.45c.13.15.26.3.38.44"/>
                  <path class="cls-50" d="m15.28,138.47c-.21.36-.41.72-.62,1.08"/>
                  <path class="cls-50" d="m13.39,154.96c.12.29.03.63-.21.81"/>
                  <path class="cls-50" d="m43.15,152.88c.24.22.47.45.71.67"/>
                  <path class="cls-50" d="m53.19,159.85c-.13.27-.25.54-.38.81"/>
                </g>
              </g>
              <path class="cls-50" d="m161.95,183.98c.49-.4.98-.79,1.46-1.19"/>
              <path class="cls-50" d="m177.53,193.76c.39.32.63.82.64,1.33"/>
              <path class="cls-50" d="m193.45,179.3c-.27.11-.48.35-.53.63"/>
              <path class="cls-50" d="m193.5,193.56c.35.56.7,1.13,1.06,1.69"/>
              <path class="cls-50" d="m177.51,173.68c-.32.41-.76.73-1.26.89"/>
              <path class="cls-50" d="m163.26,192.05c-.09.4.02.84.29,1.16"/>
              <path class="cls-50" d="m175.28,183.5c.12.3.23.59.35.89"/>
              <path class="cls-50" d="m152.45,171.8c-.21.27-.42.54-.63.81"/>
              <path class="cls-50" d="m147.41,183.33c.27.27.54.53.81.8"/>
              <path class="cls-50" d="m153.2,195.7c-.03.24-.06.47-.09.71"/>
              <path class="cls-50" d="m167.65,176.09c.24.36.47.71.71,1.07"/>
              <path class="cls-50" d="m187.81,173.86c.15.27.29.53.44.8"/>
              <path class="cls-50" d="m186.86,186.26c-.21.27-.42.53-.63.8"/>
              <path class="cls-50" d="m163.4,169.31c-.18.27-.36.54-.54.8"/>
              <path class="cls-50" d="m157.64,176.54c-.29.34-.4.82-.29,1.25"/>
              <path class="cls-50" d="m170.43,188.13c.12.27.24.53.35.8"/>
              <path class="cls-50" d="m156.08,188.5c-.18.18-.36.36-.54.53"/>
              <path class="cls-50" d="m147.06,193.03c-.24.3-.48.59-.71.89"/>
              <path class="cls-50" d="m179.49,167.49c.11.12.22.23.34.35-.12-.11-.25-.21-.37-.32"/>
              <path class="cls-50" d="m194.38,170.39c-.21.24-.43.48-.64.71"/>
              <path class="cls-50" d="m200.09,184.03c.15.24.29.48.44.71"/>
              <path class="cls-50" d="m190.96,164.48c-.12.3-.25.6-.37.9"/>
              <path class="cls-50" d="m182.76,179.02c.15.24.29.48.44.71"/>
              <path class="cls-50" d="m157.67,166.8c-.06.37-.3.71-.62.9"/>
              <path class="cls-50" d="m147.55,168.77c.27.39.54.78.8,1.16"/>
              <path class="cls-50" d="m150.72,181.81c.09.12.18.24.27.36"/>
              <path class="cls-50" d="m143.59,187.77c-.12.24-.24.47-.36.71"/>
              <path class="cls-50" d="m158.79,195.63c.06.12.12.24.18.35"/>
              <path class="cls-50" d="m151.7,190.09c-.09.24-.18.48-.27.71"/>
              <path class="cls-50" d="m169.4,181.89c.18.21.35.42.53.62"/>
              <path class="cls-50" d="m172.1,169.85c-.06.27-.12.54-.19.8"/>
              <path class="cls-50" d="m187.45,180.29c.09.33.17.65.26.98"/>
              <path class="cls-50" d="m181.5,186.8c-.21.36-.42.71-.63,1.07"/>
              <path class="cls-50" d="m183.43,172.17c-.18.27-.36.54-.55.8"/>
              <path class="cls-50" d="m161.95,175.28c.18.24.35.48.53.72"/>
              <path class="cls-50" d="m146.19,175.64c-.09.21-.18.42-.27.62"/>
              <path class="cls-50" d="m165.78,187.78c.09.12.18.24.27.36"/>
              <path class="cls-50" d="m199.97,189.85c-.18.24-.36.47-.54.71"/>
              <path class="cls-50" d="m192.85,186.98c-.12.21-.24.42-.36.62"/>
              <path class="cls-50" d="m186.99,192.76c.22.24.34.57.35.89"/>
              <path class="cls-50" d="m202.56,174.32c-.03.28.11.57.34.71"/>
              <path class="cls-50" d="m199.91,164.82c-.21.3-.41.61-.62.91"/>
              <path class="cls-50" d="m197.61,175.65c-.03.09-.06.18-.09.27"/>
              <path class="cls-50" d="m175.79,179.24c.22.18.45.36.67.55-.21-.2-.41-.41-.62-.61"/>
              <path class="cls-50" d="m185.53,166.16c.17.36.35.72.52,1.08"/>
              <path class="cls-50" d="m156.44,182.55c.09.18.18.36.27.54"/>
              <path class="cls-50" d="m144.48,179.86c-.22.36-.45.72-.67,1.07"/>
              <path class="cls-50" d="m142.73,167.51c.27.45.54.89.81,1.34"/>
              <path class="cls-50" d="m141.64,196.37c.1.28,0,.63-.25.81"/>
              <path class="cls-50" d="m171.03,194.35c.22.22.45.45.67.67"/>
              <path class="cls-50" d="m224.19,183.99c.49-.4.99-.79,1.48-1.19"/>
              <path class="cls-50" d="m239.94,173.71c-.33.41-.78.73-1.28.89"/>
              <path class="cls-50" d="m237.54,183.51c.11.3.23.59.34.89"/>
              <path class="cls-50" d="m214.88,171.82c-.21.27-.43.54-.64.8"/>
              <path class="cls-50" d="m209.66,183.34c.27.27.53.53.8.8"/>
              <path class="cls-50" d="m230.02,176.11c.23.36.46.71.69,1.07"/>
              <path class="cls-50" d="m250.26,173.89c.14.27.28.53.42.8"/>
              <path class="cls-50" d="m225.89,169.33c-.19.27-.37.53-.56.8"/>
              <path class="cls-50" d="m219.99,176.56c-.29.34-.41.82-.31,1.25"/>
              <path class="cls-50" d="m218.27,188.5c-.18.18-.36.36-.54.53"/>
              <path class="cls-50" d="m242.06,167.54c.11.11.22.23.33.35-.12-.11-.24-.21-.36-.32"/>
              <path class="cls-50" d="m256.93,170.43c-.22.24-.44.47-.66.71"/>
              <path class="cls-50" d="m253.64,164.54c-.13.3-.26.6-.39.89"/>
              <path class="cls-50" d="m245.1,179.04c.14.24.29.48.43.71"/>
              <path class="cls-50" d="m231.35,164.63c-.55.38-1.11.77-1.66,1.15"/>
              <path class="cls-50" d="m220.21,166.83c-.07.37-.31.71-.64.9"/>
              <path class="cls-50" d="m210.03,168.79c.26.39.52.77.78,1.16"/>
              <path class="cls-50" d="m212.99,181.82c.09.12.18.24.26.36"/>
              <path class="cls-50" d="m205.77,187.78c-.12.24-.24.48-.36.71"/>
              <path class="cls-50" d="m213.86,190.09c-.09.24-.18.48-.28.71"/>
              <path class="cls-50" d="m231.67,181.9c.17.21.35.42.52.62"/>
              <path class="cls-50" d="m234.6,169.88c-.07.27-.14.53-.2.8"/>
              <path class="cls-50" d="m245.91,172.2c-.19.27-.38.53-.56.8"/>
              <path class="cls-50" d="m242.74,162.29c-.19.27-.38.54-.56.81"/>
              <path class="cls-50" d="m257.33,159.43c-.19.27-.38.54-.57.8"/>
              <path class="cls-50" d="m224.32,175.29c.17.24.35.48.52.71"/>
              <path class="cls-50" d="m215.2,163.36c-.16.24-.31.48-.47.71"/>
              <path class="cls-50" d="m208.54,175.66c-.09.21-.19.42-.28.62"/>
              <path class="cls-50" d="m227.98,187.79c.09.12.18.24.26.36"/>
              <path class="cls-50" d="m262.61,164.89c-.22.3-.43.6-.65.91"/>
              <path class="cls-50" d="m260.94,160.24c-.22.3-.43.6-.65.91"/>
              <path class="cls-50" d="m238.11,179.25c.22.18.44.36.67.55-.2-.2-.41-.4-.61-.61"/>
              <path class="cls-50" d="m248.15,166.21c.17.36.33.72.5,1.07"/>
              <path class="cls-50" d="m235.4,162.98c0,.73-.16,1.48-.48,2.15"/>
              <path class="cls-50" d="m223.07,162.3c.08.49.16.98.23,1.48"/>
              <path class="cls-50" d="m218.7,182.56c.09.18.17.36.26.54"/>
              <path class="cls-50" d="m206.77,179.87c-.23.36-.46.72-.69,1.07"/>
              <path class="cls-50" d="m205.23,167.53c.26.45.53.89.79,1.34"/>
              <path class="cls-50" d="m240.92,152.3c.39.32.61.83.6,1.34"/>
              <path class="cls-50" d="m257.16,152.14c.33.57.66,1.13,1,1.7"/>
              <path class="cls-50" d="m264.18,156.09c.33.56.66,1.13.99,1.69"/>
              <path class="cls-50" d="m218.4,159.27c-.04.24-.07.48-.11.71"/>
              <path class="cls-50" d="m234.67,157.09c-.31.3-.62.59-.94.89"/>
              <path class="cls-50" d="m264.35,142.63c.14.24.27.48.41.71"/>
              <path class="cls-50" d="m265.77,151.19c.14.24.27.48.41.71"/>
              <path class="cls-50" d="m226.12,158.42c.12.15.23.3.35.44"/>
              <path class="cls-50" d="m249.89,157.66c.18.28.48.47.81.52"/>
              <path class="cls-50" d="m263.93,148.44c-.2.24-.39.47-.59.71"/>
              <path class="cls-50" d="m256.8,145.55c-.13.21-.27.42-.4.62"/>
              <path class="cls-50" d="m250.57,151.32c.21.24.32.57.31.89"/>
              <path class="cls-50" d="m243.8,159.88c-.15.27-.29.54-.44.8"/>
            </g>
            <path class="cls-23" d="m12.59,132.83c.19,4.11,7.89,19.63,54.87,29.74,47.41,10.21,97.19,10.5,140.44,1.25,43.43-9.3,60.1-21.35,57.79-30.77-17.13-1.17-205.3-26.33-253.1-.22Z"/>
          </g>
          <g>
            <path class="cls-4" d="m138.9,80.96c-28.76.27-57.23,3.22-82.13,9.9-24.4,6.59-45.11,16.73-46.5,29.13-.41,2.7-.71,4.62.11,8.6,2.81,12.38,23.95,22.07,48.02,28.15,24.6,6.18,52.36,8.71,80.51,8.99,28.15,0,56-2.27,80.69-8.39,24.16-6.02,45.42-15.84,48.29-28.48.97-3.59.85-6.35.15-9.15-1.42-12.66-22.25-22.94-46.77-29.47-25.03-6.64-53.61-9.32-82.37-9.3Z"/>
            <path class="cls-8" d="m10.75,119.6c1.7,5.69,17.45,22.67,53.99,29.63,36.62,6.95,70.08,10.07,106.56,6.67,28.23-2.63,52.79-8.11,70.67-15.32,17.87-7.21,24.45-14.94,24.86-20.55-22.92,11.52-240.11-7.12-256.08-.43Z"/>
          </g>
          <g>
            <path class="cls-7" d="m138.9,49.49c-29.34.27-58.35,3.53-83.68,10.62-24.81,7-45.88,17.55-47.29,29.98-1.27,8.88-.68,18.13,1.58,26.94,2.87,12.37,24.25,22.02,48.48,28.1,24.77,6.17,52.65,8.7,80.91,8.97,28.26,0,56.22-2.26,81.09-8.37,24.32-6.01,45.81-15.79,48.76-28.42,2.31-8.99,2.92-18.41,1.62-27.48-1.43-12.69-22.63-23.39-47.56-30.33-25.45-7.05-54.58-10.04-83.91-10.01Z"/>
            <g>
              <circle class="cls-33" cx="31.14" cy="130.27" r=".96"/>
              <path class="cls-33" d="m44.09,130.16c0,.35-.28.63-.63.63s-.63-.28-.63-.63.28-.63.63-.63.63.28.63.63Z"/>
              <path class="cls-33" d="m45.3,138.51c0,.5-.41.91-.91.91s-.91-.41-.91-.91.41-.91.91-.91.91.41.91.91Z"/>
              <path class="cls-33" d="m55.88,133.22c0,.26-.21.48-.48.48s-.48-.21-.48-.48.21-.48.48-.48.48.21.48.48Z"/>
              <circle class="cls-33" cx="60.11" cy="137.92" r=".8"/>
              <path class="cls-33" d="m71.91,144.3c0,.35-.28.63-.63.63s-.63-.28-.63-.63.28-.63.63-.63.63.28.63.63Z"/>
              <path class="cls-33" d="m84.3,138.69c0,.42-.34.76-.76.76s-.76-.34-.76-.76.34-.76.76-.76.76.34.76.76Z"/>
              <path class="cls-33" d="m88.3,142.58c0,.27-.22.49-.49.49s-.49-.22-.49-.49.22-.49.49-.49.49.22.49.49Z"/>
              <circle class="cls-33" cx="102.24" cy="141.97" r=".77"/>
              <path class="cls-33" d="m96.2,148.18c0,.3-.25.55-.55.55s-.55-.25-.55-.55.25-.55.55-.55.55.25.55.55Z"/>
              <circle class="cls-33" cx="116.05" cy="148.84" r=".69"/>
              <circle class="cls-33" cx="128.62" cy="145.11" r=".29"/>
              <path class="cls-33" d="m123.98,147.1c0,.26-.21.47-.47.47s-.47-.21-.47-.47.21-.47.47-.47.47.21.47.47Z"/>
              <circle class="cls-33" cx="133.87" cy="149.56" r=".91"/>
              <circle class="cls-33" cx="144.81" cy="145.94" r=".69"/>
              <path class="cls-33" d="m154.19,151.3c0,.3-.24.54-.54.54s-.54-.24-.54-.54.24-.54.54-.54.54.24.54.54Z"/>
              <path class="cls-33" d="m158.68,145.04c0,.36-.29.65-.65.65s-.65-.29-.65-.65.29-.65.65-.65.65.29.65.65Z"/>
              <path class="cls-33" d="m170.12,147.32c0,.42-.34.76-.76.76s-.76-.34-.76-.76.34-.76.76-.76.76.34.76.76Z"/>
              <path class="cls-33" d="m192.57,141.78c0,.36-.29.65-.65.65s-.65-.29-.65-.65.29-.65.65-.65.65.29.65.65Z"/>
              <path class="cls-33" d="m187.43,148.37c0,.24-.19.43-.43.43s-.43-.19-.43-.43.19-.43.43-.43.43.19.43.43Z"/>
              <path class="cls-33" d="m198.22,146.7c0,.24-.19.43-.43.43s-.43-.19-.43-.43.19-.43.43-.43.43.19.43.43Z"/>
              <path class="cls-33" d="m216.48,139.6c0,.44-.36.8-.8.8s-.8-.36-.8-.8.36-.8.8-.8.8.36.8.8Z"/>
              <path class="cls-33" d="m226.47,139.31c0,.4-.32.72-.72.72s-.72-.32-.72-.72.32-.72.72-.72.72.32.72.72Z"/>
              <path class="cls-33" d="m239.51,134.42c0,.34-.28.62-.62.62s-.62-.28-.62-.62.28-.62.62-.62.62.28.62.62Z"/>
              <circle class="cls-33" cx="250.81" cy="123.81" r=".65"/>
              <path class="cls-33" d="m261.96,118.56c0,.42-.34.76-.76.76s-.76-.34-.76-.76.34-.76.76-.76.76.34.76.76Z"/>
              <circle class="cls-33" cx="255.92" cy="126.82" r=".47"/>
              <path class="cls-33" d="m249.43,132.32c0,.14-.11.25-.25.25s-.25-.11-.25-.25.11-.25.25-.25.25.11.25.25Z"/>
            </g>
            <path class="cls-21" d="m273.69,91.39c0-2-.17-4.08-1-5.86-1.51-20.43-60.32-40.88-133.85-41.12-74.76.28-134.27,21.34-133.88,42.17-.48,1.52-.59,3.19-.59,4.81,0,4.36.66,8.75,1.92,13.01.48,1.63,1.31,3.49,3.02,3.96.84.23,1.75.06,2.56.38,1.14.45,1.7,1.69,2.57,2.54,2.23,2.2,6.19,1.59,8.6,3.6,1.03.86,1.62,2.08,2.26,3.23.64,1.15,1.43,2.32,2.64,2.89,1.21.57,2.91.24,3.31-.95.16-.48.11-1.06.46-1.42.69-.71,2.01.23,2.18,1.22.17.99-.25,1.98-.09,2.97.19,1.2,1.29,2.24,2.52,2.39,1.23.15,2.48-.61,2.85-1.73.12-.36.16-.75.38-1.06.59-.84,2.06-.47,2.74.37.67.83.86,1.92,1.29,2.89.72,1.63,2.21,2.94,3.94,3.46,1.72.52,3.65.25,5.09-.72.52-.22,1.04-.43,1.56-.65.03-.05.07-.1.1-.15,2.06-.28,4.29.42,5.8,1.89.63.61,1.16,1.36,1.9,1.83.74.48,1.83.6,2.41-.02.69-.75.55-2.34,1.58-2.42.73-.06,1.18.81,1.3,1.53.12.72.2,1.58.84,1.94,1.2.68,2.32-1.19,3.69-1.21,1.1-.02,1.82,1.12,2.5,1.99,1.94,2.48,5.44,3.66,8.43,2.84,2.2-.6,4.26-2.18,6.52-1.72,1.96.41,3.27,2.21,4.88,3.41,2.12,1.58,4.98,2.12,7.49,1.41,1.56-.44,2.99-1.32,4.58-1.63.64,1.04,1.27,2.08,1.9,3.12-.2,2.33,1.4,3.41,3.45,3.5,2.53.12,3.22-1.44,4.91-2.9,4.69-4.05,2.83,3.39,7.16,3.7,3.88.29,3.94-6.76,7.76-3.3,1.4,1.27,1.48,2.74,3.77,1.67,1.68-.78,1.7-1.45,3.49-1.57.23-.02.77.39,1.24.32.83-.13.5-.51,1.08-.8.72-.35,1.99-1.25,2.87-1.06,1.61.35.98,2.76,2.5,3.51,2.44,1.22,6.77-.17,8.76-1.65,1.72-1.28,2.35-3.1,4.71-2.06,2.16.95,2.78,2.74,5.67,2.7,3.97-.06,4.37-5.04,8.72-3.57,1.26.42,1.85,1.31,3.26,1.52,1.77.27,3.92-.04,5.61-.63,2.19-.76,3.09-2.68,5.84-2.26,1.65.25,7.31,4.31,6.77-.35.47-.24,1.12-.34,1.62-.21.07,2-.35,3.89,2.61,3.04,2.97-.85,2.46-3.1,3.52-5.27.44-.9,1.24-2.01,2.39-1.91,1.42.12.94,1.37,1.79,2.41,1.76,2.16,6.21,2.5,8.24.53.69-.67.72-1.41,1.56-1.93,1.1-.68,2.27-.38,3.45-.53,3.11-.4,4.8-1.56,5.22-4.75,1.36.7,3.02.85,4.53.4,1.72-.52,3.21-1.83,3.94-3.46.43-.97.61-2.05,1.29-2.89.67-.83,2.15-1.2,2.74-.37.22.31.26.7.38,1.06.38,1.13,1.62,1.89,2.85,1.73,1.23-.15,2.33-1.19,2.52-2.39.16-.99-.26-1.98-.09-2.97.17-.99,1.49-1.93,2.18-1.22.35.36.3.94.46,1.42.39,1.2,2.1,1.53,3.31.95,1.21-.57,1.99-1.75,2.64-2.89.64-1.15,1.23-2.37,2.26-3.23,2.4-2.01,6.36-1.41,8.6-3.6.87-.85,1.42-2.09,2.57-2.54.81-.32,1.72-.15,2.56-.38,1.71-.47,2.54-2.33,3.02-3.96,1.26-4.26,1.91-8.65,1.92-13.01Z"/>
          </g>
          <path class="cls-34" d="m278.07,85.62c0-2.06-.17-4.19-1.03-6.02-1.58-20.91-62.19-42.53-138.21-42.81C61.56,37.12.22,59.38.6,80.68.11,82.25,0,83.96,0,85.62c.01,4.48.7,8.98,2.01,13.36.5,1.67,1.36,3.58,3.13,4.06.87.23,1.8.06,2.64.39,1.18.46,1.76,1.73,2.66,2.6,2.31,2.25,6.4,1.62,8.89,3.69,1.06.88,1.68,2.14,2.34,3.32.67,1.18,1.48,2.38,2.73,2.97,1.25.59,3.01.25,3.41-.99.16-.49.11-1.09.47-1.47.7-.73,2.08.24,2.25,1.26.17,1.02-.25,2.04-.08,3.05.2,1.23,1.34,2.3,2.61,2.46,1.27.15,2.55-.63,2.94-1.79.12-.37.16-.77.39-1.09.6-.86,2.13-.48,2.83.37.7.86.89,1.97,1.34,2.97.75,1.67,2.29,3.02,4.07,3.55,1.78.54,3.76.25,5.25-.75.54-.22,1.07-.45,1.61-.67.04-.05.07-.1.1-.16,2.12-.29,4.43.43,5.99,1.94.66.63,1.2,1.39,1.96,1.89.77.49,1.89.62,2.48-.03.71-.77.56-2.41,1.63-2.49.75-.06,1.22.83,1.34,1.57.12.74.21,1.62.87,2,1.24.7,2.4-1.22,3.81-1.25,1.14-.02,1.88,1.15,2.58,2.05,2.01,2.56,5.62,3.77,8.7,2.92,2.26-.62,4.39-2.25,6.72-1.77,2.03.42,3.38,2.28,5.03,3.51,2.19,1.63,5.14,2.18,7.73,1.45,1.61-.46,3.08-1.37,4.72-1.68.66,1.07,1.31,2.14,1.97,3.21-.21,2.4,1.45,3.51,3.56,3.61,2.61.12,3.32-1.48,5.06-2.99,4.83-4.18,2.92,3.49,7.38,3.81,4,.3,4.06-6.97,7.99-3.4,1.44,1.31,1.52,2.82,3.88,1.72,1.74-.81,1.76-1.49,3.6-1.61.24-.02.79.4,1.27.33.85-.13.51-.53,1.11-.82.74-.36,2.05-1.29,2.96-1.09,1.66.37,1,2.84,2.57,3.62,2.52,1.25,6.97-.17,9.03-1.7,1.77-1.32,2.43-3.19,4.86-2.12,2.22.98,2.86,2.82,5.85,2.78,4.1-.06,4.51-5.19,8.99-3.68,1.29.44,1.9,1.35,3.36,1.57,1.82.28,4.05-.04,5.78-.64,2.25-.78,3.19-2.76,6.02-2.32,1.7.26,7.53,4.44,6.99-.36.49-.25,1.15-.35,1.68-.22.07,2.06-.37,4,2.69,3.13,3.07-.88,2.54-3.19,3.65-5.43.46-.93,1.28-2.07,2.47-1.97,1.46.12.97,1.41,1.84,2.48,1.81,2.23,6.39,2.58,8.49.55.71-.69.75-1.45,1.61-1.98,1.13-.7,2.34-.39,3.56-.54,3.21-.4,4.96-1.6,5.4-4.89,1.4.72,3.12.88,4.68.41,1.78-.54,3.32-1.88,4.07-3.55.45-.99.64-2.11,1.34-2.97.7-.86,2.22-1.23,2.82-.37.22.32.27.72.39,1.09.38,1.16,1.66,1.94,2.94,1.79,1.27-.15,2.41-1.23,2.61-2.46.16-1.02-.26-2.04-.08-3.05.17-1.02,1.55-1.99,2.25-1.26.36.37.31.97.47,1.47.4,1.23,2.16,1.57,3.41.99,1.25-.59,2.07-1.79,2.73-2.97.67-1.18,1.28-2.43,2.34-3.32,2.49-2.06,6.58-1.43,8.89-3.69.9-.87,1.48-2.14,2.66-2.6.84-.33,1.78-.15,2.64-.39,1.77-.48,2.63-2.39,3.13-4.06,1.31-4.38,1.99-8.88,2.01-13.36Z"/>
        </g>
        <path class="cls-26" d="m252.09,78.76l-45.03-3.77-29.39-23.93-88.36,8.67s-32.24.63-35.81,4.09c-5.1,1.2-7.48,2.93-8.12,4.64l-7.94-2.45-15.41,10.28,20.48-.6,5.37,8.03,8.91-5.67,12.12,1.79c.24,1.09.81,2.41,1.79,3.79-5.29-1.27-10.78-1.64-15.27.17-10.23,2.26-7.44,13.82,7.71,13.82,2.26,2.79,7.71.93,8.24-.4,1.99,2.39,9.04-.27,9.83-2.52.46-1.31,3.46-2.04,5.91-2.42,7.33,1.21,17.29.9,30.68-2.37,3.15,3,6.44,4.12,8.21,3.59-.53,3.36,7.61,4.34,9.47.97.27,4.51,11.95,5.58,14.25-.71,1.86,0,5.31-1.68,5.75-2.21-1.5,5.58,2.3,6.99,6.99,6.82,4.69-.18,5.4-3.89,5.66-8.14.97.27,4.43,1.68,9.65,0-1.68,4.16-.18,8.59,7.17,8.59-1.15,4.6,11.77,5.4,14.16.35,1.15,2.92,10.62,3.27,10.36-1.42,3.45,1.59,15.05-1.95,16.29-8.05l2.57-1.06,20.57,4.84s8.29-4.71,3.2-14.7Zm-183.32.05l-.44-.34c.16-.04.31-.08.45-.12-.01.14-.02.3-.01.46Z"/>
        <g>
          <ellipse class="cls-25" cx="127.97" cy="65.55" rx="21" ry="6.27"/>
          <g>
            <path class="cls-2" d="m116.12,67.44c-32.2-14.98,5.44-33.2,4.84-42.15,3.82,11.87-10.87,26.58-4.84,42.15Z"/>
            <path class="cls-52" d="m140.92,66.63c23.85-11.88-1.34-32.04-19.96-41.34,9.52,10.76,26.4,23.59,19.96,41.34Z"/>
            <path class="cls-62" d="m120.95,25.29c16.19,13.99,25.69,29.58,19.96,41.34-1.55,2.77-6.08,3.7-10.08.93,2.45-8.19,1.34-21.9-9.89-42.27Z"/>
            <g>
              <path class="cls-41" d="m120.95,25.29c1.65,10.37-5.18,20.84-6.76,30.43,2.83-7.72,11.06-23.75,6.76-30.43Z"/>
              <path class="cls-42" d="m120.95,25.29c4.3,6.68-3.94,22.71-6.76,30.43-.68,4.1-.4,8.03,1.92,11.73,2.86,3.34,12.04,3.11,14.72.12,3.87-8.99,2.25-28.63-9.89-42.27Z"/>
            </g>
          </g>
        </g>
        <g>
          <path class="cls-15" d="m162.39,22.8c5.63,4.61,4.97,10.94-7.61,15.96,25.44-5.39,27.22-10.07,7.61-15.96Z"/>
          <path class="cls-46" d="m157.4,82.46c-39.09-9.3-22.19-40.36,5.28-46.28,27.47-5.92-.29-13.38-.29-13.38,26.2,3.38,20.58,15.5,1.99,23.32-18.6,7.82-19.02,25.15-6.97,36.35Z"/>
          <path class="cls-63" d="m157.4,82.46c-3.33-7.67-2.95-24.68,15.97-32.09,18.92-7.41,11.87-27.87-10.98-27.57,11.15,1.84,23.13,9.54,7.15,15.94-15.98,6.39-32.58,24.04-12.14,43.73Z"/>
          <path class="cls-48" d="m168.86,82.67c-9.93,1.28-10.15.58-11.46-.21-4-9.58-3.58-26.6,18.84-33.98,4.54-2.55,11.35-9.39,4.96-18.69,7.04,6.2,9.38,15.73-1.35,26.21-10.73,10.49-13.65,21.63-10.98,26.67Z"/>
          <path class="cls-32" d="m181.19,29.79c15.4,10.18,15.16,29.95,9.38,42.6-.48,5.18-16.18,12.35-21.71,10.27-3.12-6.18.98-22.57,11.23-28.84,8.68-5.3,9.45-15.78,1.11-24.04Z"/>
        </g>
        <g>
          <path class="cls-29" d="m139.97,61.59c.4,6.88-6.13,10.31-19.6,10.31-1.73,0-4.32-.13-7.75-.4-3.43-.27-6.02-.4-7.75-.4-3,0-5.73-.97-8.2-2.9-2.67-2.14-3.8-4.67-3.4-7.61.27-1.87,1.33-3.44,3.2-4.71,1.46-.8,2.9-1.6,4.3-2.4,1.87-1.4,3.73-6.17,5.6-14.32,1.67-7.21,2.5-12.62,2.5-16.22s-.33-5.61-1-6.01c-2.07-.6-4.1-1.17-6.1-1.7-1.33-.53-2-1.37-2-2.5,0-.33.07-.7.2-1.1,1.33-4,5.13-7.08,11.4-9.21,4.67-1.6,9.6-2.4,14.8-2.4,1.87,0,3.6.57,5.2,1.7,1.6,1.13,2.37,2.6,2.3,4.4-.07,1.87-.53,2.97-1.4,3.3-1.4.6-2.23,1.14-2.5,1.6-.87,1.47-1.3,4.44-1.3,8.91,0,13.75,1.03,24.17,3.1,31.24.73,2.4,2.37,4.11,4.9,5.11,2.13.87,3.3,2.64,3.5,5.31Z"/>
          <path class="cls-64" d="m128.5,23.51c-.12-2.28.31-7.91.49-10.26-2.31,5.15-18.3,9.11-20.18,7.23.28,2.2-.22,7.78-.73,10.26,1.84,1.96,18.04-1.69,20.42-7.23Z"/>
          <path class="cls-65" d="m130.03,43.83c-.33-2.14-1.12-8.14-1.17-10.55-2.16,5.22-20.98,9.7-22.87,7.82-.52,2.58-1.92,7.41-3.25,9.85,1.84,1.96,24.91-1.58,27.29-7.12Z"/>
          <path class="cls-12" d="m139.64,59.74c-.18-1.18-1.81-3.25-3.85-3.76-1-.25-3.62-2.59-4.22-4.81-2.16,5.22-35.95,9.69-37.84,7.8-.32.61-1.05,3.38.12,5.79.52,1.07,2.11,3.32,4.62,4.64,2.09,1.39,38.78-4.12,41.16-9.67Z"/>
        </g>
        <g>
          <path class="cls-9" d="m192,59.61c.07.53.1.9.1,1.1.13,1.2.1,2.27-.1,3.2-.4,3.93-2.1,6.37-5.1,7.3-2.27.73-7.6,1.1-16,1.1-6.27,0-10.47-.4-12.6-1.2-4-1.47-6-4.7-6-9.7,0-1,.6-2.1,1.8-3.3,1.53-1.47,2.43-2.43,2.7-2.9l9-14.6c5.73-9.27,9.67-16.57,11.8-21.9h-5.5c-1.47,0-3.55.38-6.25,1.15-2.7.77-4.55,1.15-5.55,1.15-3.27,0-5.47-1.9-6.6-5.7-.67-2.27-1-5.7-1-10.3,0-3.07,2.13-4.6,6.4-4.6,1.87,0,4.67.27,8.4.8,3.73.53,6.57.8,8.5.8,1.67,0,4.17-.07,7.5-.2,3.33-.13,5.83-.2,7.5-.2,1.53,0,2.97.3,4.3.9,1.67.73,2.5,1.8,2.5,3.2,0,.33-.73,2.63-2.2,6.9-4.13,12-6.2,22.07-6.2,30.2,0,2.4.33,5.27,1,8.6.93,4.6,1.46,7.33,1.6,8.2Z"/>
          <path class="cls-36" d="m192.81,21.6c.55-2.4,2.17-7.17,3.02-9.69-2.31,5.15-16.35,8.69-18.24,6.8-.72,2.1-2.85,6.25-4.02,8.49,1.84,1.96,16.86-.06,19.24-5.61Z"/>
          <path class="cls-5" d="m189.72,36.98c.23-1.93.66-5.2,1.23-7.84-2.31,5.15-20.27,8.4-22.15,6.52-.63,1.18-3.67,6.03-5,8.18,1.84,1.96,23.53-1.32,25.91-6.86Z"/>
          <path class="cls-10" d="m190.74,53.1c-.23-.99-1.29-6.77-1.3-8.68-2.31,5.15-29.08,9.95-30.97,8.07-.54.87-1.94,3.22-4.49,5.74-2.29,2.27-1.63,3.85-1.63,4.63,1.84,1.96,36-4.21,38.38-9.76Z"/>
        </g>
        <g>
          <path class="cls-61" d="m75.49,73.49c29.41-14.15-8.74-36.24-8.19-44.69-3.49,11.21,13.7,29.99,8.19,44.69Z"/>
          <path class="cls-14" d="m52.83,72.73c-21.78-11.22-2.55-35.15,14.46-43.93-8.69,10.17-20.35,27.16-14.46,43.93Z"/>
          <path class="cls-39" d="m67.3,28.8c-14.79,13.22-19.69,32.82-14.46,43.93,1.42,2.61,5.56,3.49,9.2.88-2.23-7.74-5-25.56,5.26-44.81Z"/>
          <path class="cls-49" d="m67.3,28.8c-11.09,12.89-8.8,36.31-5.26,44.81,2.45,2.83,10.84,3.05,13.45-.11,7.08-11.65-10.35-30.71-8.19-44.69Z"/>
        </g>
        <g>
          <g>
            <path class="cls-19" d="m96.03,74.38c16.66-.37,18.89-11.18,15.85-18.96-3.04-7.78-7.85-15.19-12.31-15.95-4.46-.76-12.63,7.21-16.87,14.62-4.25,7.41-3.69,20.66,13.33,20.29Z"/>
            <g>
              <path class="cls-24" d="m93.34,44.27c-.21-.21-.08-.69.3-1.08.38-.39.86-.53,1.08-.32.21.21.08.69-.3,1.08-.38.39-.86.53-1.08.32Z"/>
              <path class="cls-20" d="m93.76,44.03c-.11-.1-.02-.36.18-.57.21-.21.46-.3.57-.19.11.1.02.36-.18.57s-.46.3-.57.19Z"/>
            </g>
            <g>
              <path class="cls-24" d="m93.71,49.25c-.27-.12-.31-.63-.08-1.12.23-.49.63-.79.9-.67.27.12.31.63.08,1.12-.23.49-.63.79-.9.67Z"/>
              <path class="cls-20" d="m94.03,48.88c-.13-.06-.14-.33-.02-.6.12-.27.33-.44.47-.38s.14.33.02.6c-.12.27-.33.44-.47.38Z"/>
            </g>
            <g>
              <path class="cls-24" d="m89.77,56.3c-.27-.12-.31-.63-.08-1.12.23-.49.63-.79.9-.67.27.12.31.63.08,1.12-.23.49-.63.79-.9.67Z"/>
              <path class="cls-20" d="m90.08,55.93c-.13-.06-.14-.33-.02-.6.12-.27.33-.44.47-.38.13.06.14.33.02.6s-.33.44-.47.38Z"/>
            </g>
            <g>
              <path class="cls-24" d="m105.68,57.79c-.3.05-.61-.34-.7-.88-.09-.54.08-1.01.37-1.06.3-.05.61.34.7.88.09.54-.08,1.01-.37,1.06Z"/>
              <path class="cls-20" d="m105.73,57.31c-.15.02-.3-.19-.35-.48s.03-.55.18-.57c.15-.02.3.19.35.48.05.29-.03.55-.18.57Z"/>
            </g>
            <g>
              <path class="cls-24" d="m106.4,62.83c-.3.05-.61-.34-.7-.88s.08-1.01.37-1.06c.3-.05.61.34.7.88.09.54-.08,1.01-.37,1.06Z"/>
              <path class="cls-20" d="m106.45,62.35c-.15.02-.3-.19-.35-.48-.05-.29.03-.55.18-.57s.3.19.35.48c.05.29-.03.55-.18.57Z"/>
            </g>
            <g>
              <path class="cls-24" d="m103.93,69.48c-.29-.08-.41-.56-.27-1.09.14-.52.49-.89.78-.81.29.08.41.56.27,1.09s-.49.89-.78.81Z"/>
              <path class="cls-20" d="m104.18,69.07c-.14-.04-.2-.3-.12-.59.08-.29.25-.49.4-.45.14.04.2.3.12.59s-.25.49-.4.45Z"/>
            </g>
            <g>
              <path class="cls-24" d="m105.46,72.1c-.2-.22-.03-.7.38-1.06.41-.36.9-.47,1.1-.25s.03.7-.38,1.06c-.41.36-.9.47-1.1.25Z"/>
              <path class="cls-20" d="m105.9,71.89c-.1-.11,0-.36.22-.56.22-.2.48-.27.58-.15s0,.36-.22.56c-.22.2-.48.27-.58.15Z"/>
            </g>
            <g>
              <path class="cls-24" d="m93.62,61.87c-.39-.03-.67-.62-.63-1.34.05-.71.4-1.27.8-1.24.39.03.67.62.63,1.34-.05.71-.4,1.27-.8,1.24Z"/>
              <path class="cls-20" d="m93.65,61.31c-.19-.01-.33-.34-.31-.73.03-.39.2-.69.4-.68.19.01.33.34.31.73-.03.39-.2.69-.4.68Z"/>
            </g>
            <g>
              <path class="cls-24" d="m101.54,64.99c-.39-.03-.67-.62-.63-1.34.05-.71.4-1.27.8-1.24.39.03.67.62.63,1.34-.05.71-.4,1.27-.8,1.24Z"/>
              <path class="cls-20" d="m101.57,64.43c-.19-.01-.33-.34-.31-.73.03-.39.2-.69.4-.68.19.01.33.34.31.73-.03.39-.2.69-.4.68Z"/>
            </g>
            <g>
              <path class="cls-24" d="m95.76,68.56c-.39-.03-.67-.62-.63-1.34.05-.71.4-1.27.8-1.24.39.03.67.62.63,1.34-.05.71-.4,1.27-.8,1.24Z"/>
              <path class="cls-20" d="m95.79,67.99c-.19-.01-.33-.34-.31-.73.03-.39.2-.69.4-.68.19.01.33.34.31.73-.03.39-.2.69-.4.68Z"/>
            </g>
            <g>
              <path class="cls-24" d="m95.03,54.83c-.38-.08-.57-.72-.42-1.42.15-.7.59-1.19.97-1.11.38.08.57.72.42,1.42-.15.7-.59,1.19-.97,1.11Z"/>
              <path class="cls-20" d="m95.14,54.27c-.19-.04-.28-.38-.19-.76.08-.38.31-.65.5-.61.19.04.28.38.19.76-.08.38-.31.65-.5.61Z"/>
            </g>
            <g>
              <path class="cls-24" d="m101.58,52.18c-.38.1-.83-.38-1.01-1.07-.18-.69-.01-1.33.37-1.43.38-.1.83.38,1.01,1.07.18.69.01,1.33-.37,1.43Z"/>
              <path class="cls-20" d="m101.43,51.64c-.19.05-.42-.22-.52-.59-.1-.38-.02-.72.17-.77.19-.05.42.22.52.59s.02.72-.16.77Z"/>
            </g>
            <g>
              <path class="cls-24" d="m99.88,59.15c-.39.01-.73-.56-.75-1.27-.02-.71.29-1.3.68-1.31.39-.01.73.56.75,1.27.02.71-.29,1.3-.68,1.31Z"/>
              <path class="cls-20" d="m99.86,58.58c-.19,0-.36-.31-.37-.7-.01-.39.14-.71.33-.71.19,0,.36.31.37.7.01.39-.14.71-.33.71Z"/>
            </g>
            <g>
              <path class="cls-24" d="m98.29,46.8c-.38-.08-.57-.72-.42-1.42.15-.7.59-1.19.97-1.11s.57.72.42,1.42c-.15.7-.59,1.19-.97,1.11Z"/>
              <path class="cls-20" d="m98.4,46.24c-.19-.04-.28-.38-.19-.76.08-.38.31-.65.5-.61.19.04.28.38.19.76-.08.38-.31.65-.5.61Z"/>
            </g>
            <g>
              <path class="cls-24" d="m87.62,63.43c-.29-.08-.41-.56-.28-1.09.14-.53.48-.89.77-.81.29.08.41.56.28,1.09-.14.53-.48.89-.77.81Z"/>
              <path class="cls-20" d="m87.87,63.01c-.14-.04-.2-.3-.12-.59.07-.29.25-.49.39-.45.14.04.2.3.12.59-.07.29-.25.49-.39.45Z"/>
            </g>
            <g>
              <path class="cls-24" d="m84.85,70.68c-.19.15-.57-.01-.84-.36-.27-.35-.33-.75-.14-.9.19-.15.57.01.84.36.27.35.33.75.14.9Z"/>
              <path class="cls-20" d="m84.71,70.32c-.09.07-.29-.02-.44-.21-.15-.19-.19-.4-.09-.48s.29.02.44.21c.15.19.19.4.09.48Z"/>
            </g>
            <g>
              <path class="cls-24" d="m88.76,69.28c-.28.11-.67-.2-.88-.7-.21-.5-.15-1,.13-1.12.28-.11.67.2.88.7.21.5.15,1-.13,1.12Z"/>
              <path class="cls-20" d="m88.71,68.8c-.14.06-.34-.12-.45-.39-.11-.27-.09-.54.04-.6s.34.12.45.39c.11.27.09.54-.04.6Z"/>
            </g>
            <g>
              <path class="cls-24" d="m92.42,71.21c-.28.1-.66-.23-.84-.74-.18-.51-.1-1.01.18-1.11.28-.1.66.23.84.74.18.51.1,1.01-.18,1.11Z"/>
              <path class="cls-20" d="m92.39,70.73c-.14.05-.33-.14-.43-.41-.1-.28-.07-.55.07-.6.14-.05.33.14.43.41.1.28.07.54-.07.6Z"/>
            </g>
            <g>
              <path class="cls-24" d="m88.63,49.67c-.23-.19-.14-.68.21-1.1.35-.42.81-.6,1.04-.41.23.19.14.68-.21,1.1-.35.42-.81.6-1.04.41Z"/>
              <path class="cls-20" d="m89.03,49.39c-.11-.09-.05-.36.13-.58.19-.23.43-.34.55-.24.11.09.05.36-.13.58s-.43.34-.55.24Z"/>
            </g>
            <g>
              <path class="cls-24" d="m84.89,55.85c-.26-.15-.24-.65.03-1.12.27-.47.71-.72.97-.57.26.15.24.65-.03,1.12s-.71.72-.97.57Z"/>
              <path class="cls-20" d="m85.24,55.51c-.13-.07-.11-.34.04-.6.15-.26.37-.4.5-.33.13.07.11.34-.04.6-.15.26-.37.4-.5.33Z"/>
            </g>
            <g>
              <path class="cls-24" d="m83.16,61.64c-.29-.09-.39-.58-.24-1.1.15-.52.51-.87.8-.79.29.09.39.58.24,1.1-.15.52-.51.87-.8.79Z"/>
              <path class="cls-20" d="m83.42,61.24c-.14-.04-.19-.31-.1-.59s.27-.48.41-.44.19.31.1.59-.27.48-.41.44Z"/>
            </g>
            <g>
              <path class="cls-24" d="m83.87,66.91c-.29.09-.64-.27-.8-.79-.15-.52-.05-1.01.24-1.1.29-.09.64.27.8.79.15.52.05,1.01-.24,1.1Z"/>
              <path class="cls-20" d="m83.87,66.43c-.14.04-.33-.15-.41-.44-.08-.28-.04-.55.1-.59s.33.15.41.44c.08.28.04.55-.1.59Z"/>
            </g>
            <g>
              <g>
                <path class="cls-24" d="m101.71,42.42c.22-.2.11-.69-.25-1.1s-.83-.57-1.06-.38c-.22.2-.11.69.25,1.1s.83.57,1.06.38Z"/>
                <path class="cls-20" d="m101.3,42.16c.11-.1.04-.36-.16-.58s-.45-.32-.56-.22c-.11.1-.04.36.16.58.2.22.45.32.56.22Z"/>
              </g>
              <g>
                <path class="cls-24" d="m108.87,69.22c.18.16.57.02.85-.32s.37-.73.18-.89c-.18-.16-.57-.02-.85.32-.29.33-.37.73-.18.89Z"/>
                <path class="cls-20" d="m109.03,68.87c.09.08.29,0,.45-.19.16-.18.21-.39.12-.47-.09-.08-.29,0-.45.19-.16.18-.21.39-.12.47Z"/>
              </g>
              <g>
                <path class="cls-24" d="m106.15,48.04c.24-.18.17-.68-.15-1.11-.32-.44-.78-.64-1.02-.47-.24.18-.17.68.15,1.11.32.44.78.64,1.02.47Z"/>
                <path class="cls-20" d="m105.76,47.75c.12-.09.07-.35-.1-.59-.18-.24-.42-.36-.53-.27-.12.09-.07.35.1.59.18.24.42.36.53.27Z"/>
              </g>
              <g>
                <path class="cls-24" d="m109.57,54.4c.27-.14.28-.64.03-1.12-.25-.48-.67-.76-.94-.62s-.28.64-.03,1.12.67.76.94.62Z"/>
                <path class="cls-20" d="m109.23,54.05c.13-.07.13-.34-.01-.6-.14-.26-.35-.42-.49-.35s-.13.34.01.6.35.42.49.35Z"/>
              </g>
              <g>
                <path class="cls-24" d="m111.01,60.28c.29-.07.42-.56.29-1.08-.13-.53-.47-.9-.76-.83-.29.07-.42.56-.29,1.08.13.53.47.9.76.83Z"/>
                <path class="cls-20" d="m110.77,59.86c.14-.03.2-.3.13-.58-.07-.29-.24-.49-.39-.46-.14.04-.2.3-.13.58.07.29.24.49.39.46Z"/>
              </g>
              <g>
                <path class="cls-24" d="m110.04,65.5c.28.1.66-.24.84-.75.18-.51.1-1.01-.19-1.11-.28-.1-.66.24-.84.75-.18.51-.1,1.01.19,1.11Z"/>
                <path class="cls-20" d="m110.07,65.02c.14.05.33-.14.43-.42.1-.28.06-.55-.08-.59-.14-.05-.33.14-.43.42-.1.28-.06.55.08.59Z"/>
              </g>
            </g>
          </g>
          <g>
            <path class="cls-45" d="m119.08,85.27c3.8-8.58-7.24-13.58-24.83-13.13-12.39.32-18.84-3.07-20.47-7.52-9.4,5.71-4.95,15.27,18.56,18.11,17.52,2.11,25-.14,26.74,2.54Z"/>
            <path class="cls-44" d="m119.08,85.27c-2.96-5.83-30.32-3-38.96-6.38s-11.25-5.4-9.82-11.23c-5.98,9.92,2.29,14.93,10.19,15.88,23.97,2.91,34.33-.36,38.59,1.73Z"/>
            <path class="cls-17" d="m119.08,85.27c-6.27-3.27-27.46.62-40.57-2.66-13.12-3.28-9.95-10.28-9.82-11.5-1.94,4.01-3.13,14.99,14.2,17.67,15.83,2.45,28.72.3,36.2-3.51Z"/>
          </g>
          <g>
            <path class="cls-16" d="m120.63,77.58c4.48-7.61-5.31-13.47-21.8-14.94-11.62-1.04-17.28-4.9-18.33-9.23-9.4,4.33-6.27,13.74,15.4,18.92,16.15,3.86,23.38,2.56,24.73,5.25Z"/>
            <path class="cls-44" d="m120.63,77.58c-2.14-5.77-28.02-6.07-35.74-10.15-7.72-4.09-9.94-6.26-7.97-11.56-6.66,8.63.53,14.2,7.82,15.95,22.09,5.3,32.13,3.36,35.89,5.77Z"/>
            <path class="cls-31" d="m120.63,77.58c-5.51-3.74-25.73-2.37-37.64-6.86-11.91-4.48-8.2-10.68-7.94-11.81-2.24,3.54-3.85,13.1,12.42,15.81,16.27,2.71,26.12,5.34,33.16,2.85Z"/>
          </g>
        </g>
        <g>
          <path class="cls-60" d="m69.11,63.75c-3.15,2.23-3.03,5.6,3.44,8.71-13.25-3.78-14.02-6.31-3.44-8.71Z"/>
          <path class="cls-47" d="m69.57,95.47c21-3.49,13.2-20.53-1.1-24.66-14.31-4.13.64-7.06.64-7.06-13.97.83-11.44,7.44-1.9,12.25,9.54,4.81,9.14,13.99,2.36,19.47Z"/>
          <path class="cls-40" d="m69.57,95.47c2.04-3.93,2.46-12.94-7.27-17.55s-5.26-15.17,6.81-14.17c-5.96.56-12.57,4.2-4.36,8.16,8.21,3.96,16.35,13.9,4.82,23.56Z"/>
          <path class="cls-66" d="m63.51,95.16c5.2,1.04,5.35.68,6.07.31,2.46-4.92,2.86-13.93-8.72-18.65-2.31-1.52-5.65-5.38-1.94-10.06-3.95,3.02-5.53,7.97-.24,13.9,5.29,5.93,6.43,11.93,4.83,14.5Z"/>
          <path class="cls-54" d="m58.92,66.76c-8.51,4.82-9.11,15.28-6.51,22.18.07,2.76,8.1,7.12,11.1,6.22,1.87-3.15.31-11.97-4.88-15.65-4.39-3.12-4.42-8.69.29-12.75Z"/>
        </g>
        <g>
          <ellipse class="cls-22" cx="138.36" cy="91.52" rx="18.96" ry="5.66"/>
          <g>
            <path class="cls-58" d="m149.06,93.22c29.06-13.53-4.91-29.97-4.37-38.05-3.45,10.72,9.82,24,4.37,38.05Z"/>
            <path class="cls-59" d="m126.67,92.49c-21.53-10.72,1.21-28.93,18.02-37.32-8.59,9.72-23.83,21.29-18.02,37.32Z"/>
            <path class="cls-37" d="m144.69,55.17c-14.62,12.63-23.19,26.7-18.02,37.32,1.4,2.5,5.49,3.34,9.1.84-2.21-7.39-1.21-19.77,8.93-38.16Z"/>
            <g>
              <path class="cls-28" d="m144.69,55.17c-1.49,9.36,4.68,18.81,6.1,27.47-2.55-6.96-9.98-21.44-6.1-27.47Z"/>
              <path class="cls-55" d="m144.69,55.17c-3.88,6.03,3.55,20.5,6.1,27.47.61,3.7.36,7.25-1.74,10.58-2.58,3.02-10.87,2.81-13.29.11-3.5-8.12-2.03-25.84,8.93-38.16Z"/>
            </g>
          </g>
        </g>
        <g>
          <g>
            <path class="cls-43" d="m207.11,25.74l2.92-.98c15.3,1.22,38.51,12.1,52.74,34.99l-1.47.15-54.18-34.16Z"/>
            <polygon class="cls-3" points="262.77 59.75 216.51 89.13 215.59 89.25 261.3 59.9 262.77 59.75"/>
            <path class="cls-27" d="m206.4,82.98l.71-57.23s32.05,2.15,54.18,34.16l-45.71,29.35-9.18-6.27Z"/>
          </g>
          <path class="cls-57" d="m212.68,72.13c-.12-.02-.25-.04-.37-.05.06.02.19.04.37.05Zm.37-10.99c-.15-.02-.31-.04-.45-.06.07.03.23.05.45.06Zm20.33-.52c8.13-.85,15.51-2.18,16.91-3.23-5.19,1.19-11.34,2.05-17.16,2.65-1.26-3.04-2.55-6.39-3.7-9.46,4.98-.44,9.13-1.29,10.47-2.29-2.32.73-6.42,1.24-10.73,1.59-1.88-5.04-3.37-9.19-3.75-9.78.4,1.79,1.51,5.56,3,9.84-3.74.28-7.55.43-10.44.47-3.56-9.84-5.64-17.8-5.97-18.45.16,1.69,1.68,9.24,4.92,18.46-1.47,0-2.61-.02-3.24-.07,1.06.16,2.18.28,3.34.36,1.16,3.28,2.54,6.76,4.15,10.26-4,.21-7,.25-8.14.17,2.17.3,5.09.38,8.35.3,1.59,3.42,3.4,6.85,5.46,10.13-3.61.37-7.77.56-10.73.61-1.4-3.88-2.46-7.78-3.29-9.02.1,1.69,1.02,5.37,2.52,9.03-1.22,0-2.17,0-2.67-.05.88.13,1.81.23,2.78.29,1.27,3.04,2.94,6.03,4.89,7.85-1.62-1.63-2.97-4.69-4.11-7.8,3.68.2,7.72,0,10.94-.42.98,1.54,2.01,3.04,3.1,4.49-.94-1.45-1.85-2.97-2.72-4.54,2.57-.36,4.56-.88,5.34-1.46-1.3.41-3.33.73-5.61.97-1.79-3.24-3.43-6.67-4.93-10.11,3.28-.11,6.85-.37,10.31-.71,1.63,3.58,3.34,6.68,4.93,8.34-1.16-1.56-2.66-4.73-4.21-8.42Zm-11.25.3c-1.49-3.45-2.83-6.89-4.01-10.14,3.46.2,7.17.12,10.55-.14,1.1,3.11,2.38,6.45,3.73,9.48-3.7.37-7.23.63-10.26.8Zm-8.44-10.57c-.16-.02-.32-.05-.48-.07.08.03.25.05.48.07Z"/>
        </g>
        <g>
          <path class="cls-13" d="m185.19,98.07c-30.76-14.8,9.14-37.9,8.57-46.74,3.65,11.73-14.33,31.36-8.57,46.74Z"/>
          <path class="cls-35" d="m208.88,97.28c22.78-11.73,2.66-36.76-15.13-45.94,9.09,10.63,21.28,28.4,15.13,45.94Z"/>
          <path class="cls-56" d="m193.76,51.33c15.47,13.82,20.6,34.33,15.13,45.94-1.48,2.73-5.81,3.65-9.63.92,2.34-8.09,5.23-26.74-5.5-46.86Z"/>
          <path class="cls-30" d="m193.76,51.33c11.6,13.48,9.2,37.98,5.5,46.86-2.56,2.96-11.33,3.19-14.07-.12-7.4-12.19,10.82-32.12,8.57-46.74Z"/>
        </g>
        <g>
          <path class="cls-11" d="m156.8,95.2c-.49,2.27,7.79,3.15,8.48.3.69-2.86,5.06-26.39,5.62-29.48.89-4.93,7.18-3.76,6.8.59-.28,3.25,7.06,3.95,7.69.2,2.4-14.22-20.8-16.96-23.27-1.77-2.16,13.29-5.32,30.17-5.32,30.17Z"/>
          <g>
            <path class="cls-1" d="m157.9,87.91c-.43,1.97,8.37,2.66,9.57-3.22.26.56-.39,3-.69,3.73-1.2,5.88-9.49,5.19-9.58,3.19-.12-.49.27-3.38.7-3.7Z"/>
            <path class="cls-1" d="m158.87,83.04c-.23,1.79,8.23.88,9.27-2.21,1.07-2.57,1.27-4.19,1.01-5.2-.7,2.47-7.88,4.73-9.46,3.15-.29.46-.91,3.41-.81,4.26Z"/>
          </g>
          <path class="cls-1" d="m160.8,72.72c.34,1.22,6.52.69,9.3-2.44.8-1.6.88-4.73,1.11-5.34-.61,1.6-7.24,4.08-9.76,3.43-.42,1.22-.65,3.24-.65,4.35Z"/>
          <path class="cls-1" d="m163.63,60.39c.09-.96,3.13-4.18,5.74-4.67.41.81,1.45,4.9,4.7,7.1,0,0-1.25.26-1.71.64-1.3-.12-8-.81-8.73-3.07Z"/>
          <path class="cls-1" d="m177.78,55.25c-1.01.09-2.58,4.64-2,7.89.35.46,1.19.52,1.51,1.48.72-1.97,3.62-5.97,6.67-5.25-.7-1.91-4.61-4.47-6.18-4.12Z"/>
          <path class="cls-4" d="m178.47,67.62c.83,1.63,6.38,1.51,6.67-1.44-1.19,1.35-3.65,2.15-6.67,1.44Z"/>
        </g>
        <g>
          <path class="cls-38" d="m36.5,33.56c-2.19,2.56-4.91,6.67-7.58,11.46-5.25-.56-9.98-.79-13.28-.58,1.67,3.23,3.57,6.96,5.91,11.12l20.66-9.18c-2-5.24-4.03-9.86-5.7-12.81Z"/>
          <g>
            <path class="cls-51" d="m43.42,49.63c-.17-.47-.34-.94-.52-1.41l-20.37,9.05c.48.83.97,1.67,1.49,2.53-.42,2.74-.79,5.4-1.1,7.94l29.3-12.94c-2.54-1.66-5.59-3.44-8.81-5.17Z"/>
            <path class="cls-6" d="m22.93,67.74c-.38,3.06-.68,5.94-.91,8.55,4.01-.71,8.54-1.53,13.4-2.73,4.76,4.18,8.84,7.2,12.46,10.17.05-4.28-.14-9.93-.62-16.33,3.81-3.35,7.03-6.76,9.17-9.55-1.12-.93-2.55-1.96-4.19-3.04l-29.3,12.94Z"/>
          </g>
          <path class="cls-4" d="m42.2,46.37l-20.66,9.18c.32.56.65,1.14.99,1.72l20.37-9.05c-.23-.62-.46-1.24-.69-1.85Z"/>
        </g>
      </g>
    </g>
  </g>
</svg>