<?xml version="1.0" encoding="UTF-8"?>
<svg id="Layer_2" data-name="Layer 2" xmlns="http://www.w3.org/2000/svg" viewBox="0 0 68.25 181.25">
  <defs>
    <style>
      .cls-1 {
        fill: #fff;
      }

      .cls-2 {
        fill: #f5a292;
      }

      .cls-3 {
        fill: #f56a7c;
      }
    </style>
  </defs>
  <g id="Layer_5" data-name="Layer 5">
    <g>
      <g>
        <path class="cls-3" d="m48.01,27.97c0-11.42-5.46-21.54-13.89-27.97-8.43,6.43-13.89,16.55-13.89,27.97s5.46,21.54,13.89,27.97c8.43-6.43,13.89-16.55,13.89-27.97Z"/>
        <path class="cls-2" d="m44.12,35.8c0-8.22-3.93-15.5-10-20.13-6.07,4.63-10,11.91-10,20.13s3.93,15.5,10,20.13c6.07-4.63,10-11.91,10-20.13Z"/>
        <path class="cls-1" d="m39.89,44.33c0-4.74-2.27-8.94-5.76-11.6-3.5,2.67-5.76,6.87-5.76,11.6s2.27,8.94,5.76,11.6c3.5-2.67,5.76-6.87,5.76-11.6Z"/>
      </g>
      <path class="cls-3" d="m59.55,162.2c.1.8.15,1.35.15,1.65.2,1.8.15,3.4-.15,4.8-.6,5.9-3.15,9.55-7.65,10.95-3.4,1.1-11.4,1.65-24,1.65-9.4,0-15.7-.6-18.9-1.8-6-2.2-9-7.05-9-14.55,0-1.5.9-3.15,2.7-4.95,2.3-2.2,3.65-3.65,4.05-4.35l13.5-21.9c8.6-13.9,14.5-24.85,17.7-32.85h-8.25c-2.2,0-5.33.58-9.38,1.73-4.05,1.15-6.83,1.72-8.33,1.72-4.9,0-8.2-2.85-9.9-8.55-1-3.4-1.5-8.55-1.5-15.45,0-4.6,3.2-6.9,9.6-6.9,2.8,0,7,.4,12.6,1.2,5.6.8,9.85,1.2,12.75,1.2,2.5,0,6.25-.1,11.25-.3,5-.2,8.75-.3,11.25-.3,2.3,0,4.45.45,6.45,1.35,2.5,1.1,3.75,2.7,3.75,4.8,0,.5-1.1,3.95-3.3,10.35-6.2,18-9.3,33.1-9.3,45.3,0,3.6.5,7.9,1.5,12.9,1.4,6.9,2.2,11,2.4,12.3Z"/>
    </g>
  </g>
</svg>