<?xml version="1.0" encoding="UTF-8"?>
<svg id="Layer_2" data-name="Layer 2" xmlns="http://www.w3.org/2000/svg" viewBox="0 0 70.19 181.25">
  <defs>
    <style>
      .cls-1 {
        fill: #fff;
      }

      .cls-2 {
        fill: #f5a292;
      }

      .cls-3 {
        fill: #f56a7c;
      }
    </style>
  </defs>
  <g id="Layer_5" data-name="Layer 5">
    <g>
      <path class="cls-3" d="m70.17,165.78c.6,10.31-9.2,15.47-29.4,15.47-2.6,0-6.48-.2-11.62-.6-5.15-.4-9.03-.6-11.62-.6-4.5,0-8.6-1.45-12.3-4.35-4-3.2-5.7-7.01-5.1-11.42.4-2.8,2-5.16,4.8-7.06,2.2-1.2,4.35-2.4,6.45-3.6,2.8-2.1,5.6-9.26,8.4-21.48,2.5-10.81,3.75-18.93,3.75-24.33s-.5-8.41-1.5-9.01c-3.1-.9-6.15-1.75-9.15-2.55-2-.8-3-2.05-3-3.76,0-.5.1-1.05.3-1.65,2-6.01,7.7-10.61,17.1-13.82,7-2.4,14.4-3.6,22.2-3.6,2.8,0,5.4.85,7.8,2.55,2.4,1.7,3.55,3.9,3.45,6.61-.1,2.81-.8,4.46-2.1,4.96-2.1.9-3.35,1.7-3.75,2.4-1.3,2.2-1.95,6.66-1.95,13.37,0,20.63,1.55,36.25,4.65,46.87,1.1,3.6,3.55,6.16,7.35,7.66,3.2,1.3,4.95,3.96,5.25,7.96Z"/>
      <g>
        <path class="cls-3" d="m48.98,27.97c0-11.42-5.46-21.54-13.89-27.97-8.43,6.43-13.89,16.55-13.89,27.97s5.46,21.54,13.89,27.97c8.43-6.43,13.89-16.55,13.89-27.97Z"/>
        <path class="cls-2" d="m45.1,35.8c0-8.22-3.93-15.5-10-20.13-6.07,4.63-10,11.91-10,20.13s3.93,15.5,10,20.13c6.07-4.63,10-11.91,10-20.13Z"/>
        <path class="cls-1" d="m40.86,44.33c0-4.74-2.27-8.94-5.76-11.6-3.5,2.67-5.76,6.87-5.76,11.6s2.27,8.94,5.76,11.6c3.5-2.67,5.76-6.87,5.76-11.6Z"/>
      </g>
    </g>
  </g>
</svg>