<svg width="413" height="424" viewBox="0 0 413 424" fill="none" xmlns="http://www.w3.org/2000/svg">
<g id="gift-box">
<g id="body">
<path id="Vector" d="M29.0835 174.852H383.909V410.558C383.909 417.976 377.879 423.993 370.46 423.993H42.5324C35.1067 423.993 29.0835 417.969 29.0835 410.558V174.852Z" fill="#E05F5F"/>
<path id="Vector_2" d="M232.675 174.852H181.777V424H232.675V174.852Z" fill="#D3AE11"/>
</g>
<g id="lid">
<path id="Vector_3" d="M401.367 109.482H11.6334C5.20845 109.482 0 114.685 0 121.103V163.23C0 169.649 5.20845 174.852 11.6334 174.852H401.367C407.792 174.852 413 169.649 413 163.23V121.103C413 114.685 407.792 109.482 401.367 109.482Z" fill="#FF647A"/>
<g id="Group">
<path id="Vector_4" d="M206.496 56.4015C206.496 56.4015 56.1664 -13.8763 42.5324 2.46802C28.8984 18.8124 29.9877 89.0902 39.8056 93.443C49.6235 97.803 206.496 111.061 206.496 111.061C206.496 111.061 213.766 101.075 195.774 95.0789C177.783 89.0831 63.2575 76.0105 65.4432 58.5779C67.6218 41.1454 63.8057 31.885 74.7129 34.0614C85.6201 36.2378 200.687 81.4586 203.955 81.4586C207.223 81.4586 206.496 56.4015 206.496 56.4015Z" fill="#FFD00B"/>
<path id="Vector_5" d="M207.949 56.4015C207.949 56.4015 358.279 -13.8763 371.913 2.46802C385.547 18.8124 384.458 89.0902 374.64 93.443C364.822 97.7958 207.949 111.061 207.949 111.061C207.949 111.061 200.68 101.075 218.671 95.0789C236.662 89.0831 351.188 76.0105 349.002 58.5779C346.816 41.1454 350.639 31.885 339.732 34.0614C328.825 36.2378 213.758 81.4586 210.49 81.4586C207.223 81.4586 207.949 56.4015 207.949 56.4015Z" fill="#FFD00B"/>
<path id="Vector_6" d="M183.778 68.5638C183.778 68.5638 190.869 57.6675 207.045 57.1199C223.22 56.5722 229.222 68.5638 229.222 68.5638C229.222 68.5638 225.769 111.053 207.045 111.053C188.32 111.053 183.778 68.5638 183.778 68.5638Z" fill="#FFD00B"/>
</g>
<path id="Vector_7" d="M232.675 109.482H181.777V174.852H232.675V109.482Z" fill="#FFD00B"/>
</g>
</g>
</svg>
