<?xml version="1.0" encoding="UTF-8"?>
<svg id="Layer_2" data-name="Layer 2" xmlns="http://www.w3.org/2000/svg" viewBox="0 0 580.09 596.14">
  <defs>
    <style>
      .cls-1 {
        fill: #ffd00b;
      }

      .cls-2 {
        fill: #ff647a;
      }

      .cls-3 {
        fill: #d3ae11;
      }

      .cls-4 {
        fill: #e05f5f;
      }
    </style>
  </defs>
  <g id="Layer_1-2" data-name="Layer 1">
    <g>
      <path class="cls-4" d="m40.85,245.84h498.38v331.4c0,10.43-8.47,18.89-18.89,18.89H59.74c-10.43,0-18.89-8.47-18.89-18.89V245.84h0Z"/>
      <rect class="cls-3" x="255.32" y="245.84" width="71.49" height="350.3"/>
    </g>
    <g>
      <rect class="cls-2" y="153.93" width="580.09" height="91.91" rx="16.34" ry="16.34"/>
      <g>
        <path class="cls-1" d="m290.04,79.3S78.89-19.51,59.74,3.47c-19.15,22.98-17.62,121.79-3.83,127.91,13.79,6.13,234.13,24.77,234.13,24.77,0,0,10.21-14.04-15.06-22.47s-186.13-26.81-183.06-51.32c3.06-24.51-2.3-37.53,13.02-34.47s176.94,66.64,181.53,66.64,3.57-35.23,3.57-35.23Z"/>
        <path class="cls-1" d="m292.08,79.3S503.23-19.51,522.38,3.47s17.62,121.79,3.83,127.91-234.13,24.77-234.13,24.77c0,0-10.21-14.04,15.06-22.47s186.13-26.81,183.06-51.32,2.3-37.53-13.02-34.47-176.94,66.64-181.53,66.64-3.57-35.23-3.57-35.23Z"/>
        <path class="cls-1" d="m258.13,96.4s9.96-15.32,32.68-16.09,31.15,16.09,31.15,16.09c0,0-4.85,59.74-31.15,59.74s-32.68-59.74-32.68-59.74Z"/>
      </g>
      <rect class="cls-1" x="255.32" y="153.93" width="71.49" height="91.91"/>
    </g>
  </g>
</svg>